# This file uses centimeters as units for non-parametric coordinates.

mtllib Arrow.mtl
g default
v -0.293624 -0.055872 0.049481
v 0.293624 -0.055872 0.049481
v -0.293624 0.055872 0.049481
v 0.293624 0.055872 0.049481
v -0.293624 0.055872 -0.049481
v 0.293624 0.055872 -0.049481
v -0.293624 -0.055872 -0.049481
v 0.293624 -0.055872 -0.049481
v 0.293624 0.055872 -0.196111
v 0.293624 -0.055872 -0.196111
v 0.442231 0.055872 -0.001129
v 0.442231 -0.055872 -0.001129
v 0.293624 -0.055872 0.196111
v 0.293624 0.055872 0.196111
vt 0.375000 0.000000
vt 0.625000 0.000000
vt 0.375000 0.250000
vt 0.625000 0.250000
vt 0.375000 0.500000
vt 0.625000 0.500000
vt 0.375000 0.750000
vt 0.625000 0.750000
vt 0.375000 1.000000
vt 0.625000 1.000000
vt 0.875000 0.000000
vt 0.875000 0.250000
vt 0.125000 0.000000
vt 0.125000 0.250000
vt 0.875000 0.000000
vt 0.875000 0.250000
vt 0.747705 0.249995
vt 0.754369 0.000005
vt 0.625000 0.250000
vt 0.625000 0.000000
vn 0.000000 0.000000 1.000000
vn 0.000000 0.000000 1.000000
vn 0.000000 0.000000 1.000000
vn 0.000000 0.000000 1.000000
vn 0.000000 1.000000 0.000000
vn 0.000000 1.000000 0.000000
vn 0.000000 1.000000 0.000000
vn 0.000000 1.000000 0.000000
vn 0.000000 0.000000 -1.000000
vn 0.000000 0.000000 -1.000000
vn 0.000000 0.000000 -1.000000
vn 0.000000 0.000000 -1.000000
vn 0.000000 -1.000000 0.000000
vn 0.000000 -1.000000 0.000000
vn 0.000000 -1.000000 0.000000
vn 0.000000 -1.000000 0.000000
vn -1.000000 0.000000 0.000000
vn -1.000000 0.000000 0.000000
vn -1.000000 0.000000 0.000000
vn -1.000000 0.000000 0.000000
vn 0.795335 0.000000 -0.606170
vn 0.795335 0.000000 -0.606170
vn 0.795335 0.000000 -0.606170
vn 0.795335 0.000000 -0.606170
vn 0.798682 0.000000 0.601753
vn 0.798682 0.000000 0.601753
vn 0.798682 0.000000 0.601753
vn 0.798682 0.000000 0.601753
vn -1.000000 0.000000 0.000000
vn -1.000000 0.000000 0.000000
vn -1.000000 0.000000 0.000000
vn -1.000000 0.000000 0.000000
vn 0.000000 1.000000 0.000000
vn 0.000000 1.000000 0.000000
vn 0.000000 1.000000 0.000000
vn -1.000000 0.000000 0.000000
vn -1.000000 0.000000 0.000000
vn -1.000000 0.000000 0.000000
vn -1.000000 0.000000 0.000000
vn 0.000000 -1.000000 0.000000
vn 0.000000 -1.000000 0.000000
vn 0.000000 -1.000000 0.000000
s off
g pCube1
usemtl initialShadingGroup
f 1/1/1 2/2/2 4/4/3 3/3/4
s 1
f 3/3/5 4/4/6 6/6/7 5/5/8
s off
f 5/5/9 6/6/10 8/8/11 7/7/12
s 2
f 7/7/13 8/8/14 2/10/15 1/9/16
s off
f 7/13/17 1/1/18 3/3/19 5/14/20
f 10/15/21 9/16/22 11/17/23 12/18/24
f 14/19/25 13/20/26 12/18/27 11/17/28
f 8/11/29 6/12/30 9/16/31 10/15/32
s 1
f 11/17/33 9/16/34 6/12/7 4/4/6 14/19/35
s off
f 4/4/36 2/2/37 13/20/38 14/19/39
s 2
f 12/18/40 13/20/41 2/2/15 8/11/14 10/15/42
